<?xml version="1.0" encoding="utf-8"?>
<!-- Generator: Adobe Illustrator 19.1.0, SVG Export Plug-In . SVG Version: 6.00 Build 0)  -->
<svg version="1.1" id="Layer_1" xmlns="http://www.w3.org/2000/svg" xmlns:xlink="http://www.w3.org/1999/xlink" x="0px" y="0px"
	 viewBox="0 0 260 305" style="enable-background:new 0 0 260 305;" xml:space="preserve">
<style type="text/css">
	.st0{fill:none;stroke:#9A9A9A;stroke-width:0.25;}
	.st1{fill:none;stroke:#454545;stroke-width:1.5;}
	.st2{opacity:0.6;fill:#E44126;}
	.st3{opacity:0.6;fill:#68BD45;}
	.st4{opacity:0.6;fill:#5C92CD;}
	.st5{fill:#EAEAEA;stroke:#000000;stroke-miterlimit:10;}
	.st6{fill:#FFFFFF;stroke:#FFFFFF;stroke-width:2;}
	.st7{fill:none;stroke:#000000;stroke-width:0.75;}
	.st8{clip-path:url(#SVGID_2_);}
	.st9{fill:#E5E5E5;stroke:#848484;stroke-width:0.25;}
	.st10{clip-path:url(#SVGID_4_);}
	.st11{clip-path:url(#SVGID_6_);}
	.st12{clip-path:url(#SVGID_8_);}
	.st13{clip-path:url(#SVGID_10_);}
	.st14{clip-path:url(#SVGID_12_);}
	.st15{clip-path:url(#SVGID_14_);}
	.st16{fill:none;stroke:#000000;stroke-miterlimit:10;}
</style>
<g>
	<g>
		<line class="st0" x1="204.4" y1="113.6" x2="204.4" y2="300"/>
		<line class="st0" x1="185.7" y1="113.6" x2="185.7" y2="299.6"/>
		<line class="st0" x1="167" y1="113.6" x2="167" y2="300"/>
		<line class="st0" x1="148.3" y1="113.6" x2="148.3" y2="300"/>
		<line class="st0" x1="129.6" y1="113.6" x2="129.6" y2="300"/>
		<line class="st0" x1="35.7" y1="207.1" x2="222.7" y2="207.1"/>
		<line class="st0" x1="35.7" y1="188.4" x2="222.7" y2="188.4"/>
		<line class="st0" x1="35.7" y1="169.7" x2="223.1" y2="169.7"/>
		<line class="st0" x1="35.7" y1="151" x2="222.7" y2="151"/>
		<line class="st0" x1="35.7" y1="132.3" x2="222.7" y2="132.3"/>
		<line class="st0" x1="110.3" y1="113.6" x2="110.3" y2="299.6"/>
		<line class="st0" x1="91.6" y1="113.6" x2="91.6" y2="299.6"/>
		<line class="st0" x1="72.9" y1="113.6" x2="72.9" y2="300"/>
		<line class="st0" x1="54.2" y1="113.6" x2="54.2" y2="300"/>
		<line class="st0" x1="35.8" y1="281.8" x2="222.7" y2="281.8"/>
		<line class="st0" x1="35.8" y1="263" x2="222.7" y2="263"/>
		<line class="st0" x1="35.8" y1="244.4" x2="223.1" y2="244.4"/>
		<line class="st0" x1="35.5" y1="225.8" x2="223.1" y2="225.8"/>
	</g>
	<rect x="35.8" y="113.6" class="st1" width="187" height="186.4"/>
	<rect x="72.9" y="244.2" class="st2" width="75.4" height="37.7"/>
	<rect x="167" y="114.5" class="st3" width="37.2" height="73.8"/>
	<rect x="129.6" y="169.7" class="st4" width="37.4" height="56.1"/>
</g>
<g>
	<g>
		<path class="st5" d="M243.4,79H16.2c-6.6,0-12-5.4-12-12V17.9c0-6.6,5.4-12,12-12h227.2c6.6,0,12,5.4,12,12V67
			C255.4,73.6,250,79,243.4,79z"/>
		<g>
			<rect x="172.1" y="16.2" class="st6" width="26" height="51.9"/>
			<rect x="172.1" y="16.2" class="st7" width="26" height="51.9"/>
			<g>
				<defs>
					<rect id="SVGID_1_" x="172.8" y="17.1" width="24.3" height="50.2"/>
				</defs>
				<clipPath id="SVGID_2_">
					<use xlink:href="#SVGID_1_"  style="overflow:visible;"/>
				</clipPath>
				<g class="st8">
					<line class="st9" x1="185.1" y1="16.2" x2="185.1" y2="68.2"/>
					<line class="st9" x1="198.1" y1="55.1" x2="172.1" y2="55.1"/>
					<line class="st9" x1="198.1" y1="42.1" x2="172.1" y2="42.1"/>
					<line class="st9" x1="198.1" y1="29.1" x2="172.1" y2="29.1"/>
				</g>
			</g>
		</g>
		<g>
			<rect x="205.2" y="16.2" class="st6" width="39" height="51.9"/>
			<rect x="205.2" y="16.2" class="st7" width="39" height="51.9"/>
			<g>
				<defs>
					<rect id="SVGID_3_" x="206.6" y="17.5" width="36.3" height="49.2"/>
				</defs>
				<clipPath id="SVGID_4_">
					<use xlink:href="#SVGID_3_"  style="overflow:visible;"/>
				</clipPath>
				<g class="st10">
					<line class="st9" x1="218.2" y1="16.2" x2="218.2" y2="68.3"/>
					<line class="st9" x1="231.2" y1="16.2" x2="231.2" y2="68.3"/>
					<line class="st9" x1="244.2" y1="55.2" x2="205.3" y2="55.2"/>
					<line class="st9" x1="244.2" y1="42.1" x2="205.3" y2="42.1"/>
					<line class="st9" x1="244.2" y1="29.1" x2="205.3" y2="29.1"/>
				</g>
			</g>
		</g>
		<g>
			<rect x="123.9" y="29.1" class="st6" width="39" height="39"/>
			<rect x="124" y="29.1" class="st7" width="39" height="39"/>
			<g>
				<defs>
					<rect id="SVGID_5_" x="125.3" y="30.5" width="36.3" height="36.3"/>
				</defs>
				<clipPath id="SVGID_6_">
					<use xlink:href="#SVGID_5_"  style="overflow:visible;"/>
				</clipPath>
				<g class="st11">
					<line class="st9" x1="136.9" y1="29" x2="136.9" y2="68.3"/>
					<line class="st9" x1="149.9" y1="29" x2="149.9" y2="68.3"/>
					<line class="st9" x1="162.9" y1="55.2" x2="124" y2="55.2"/>
					<line class="st9" x1="162.9" y1="42.1" x2="124" y2="42.1"/>
				</g>
			</g>
		</g>
		<g>
			<rect x="89.6" y="29.1" class="st6" width="26" height="39"/>
			<rect x="89.6" y="29.1" class="st7" width="26" height="39"/>
			<g>
				<defs>
					<rect id="SVGID_7_" x="91" y="30.5" width="24.6" height="36.3"/>
				</defs>
				<clipPath id="SVGID_8_">
					<use xlink:href="#SVGID_7_"  style="overflow:visible;"/>
				</clipPath>
				<g class="st12">
					<line class="st9" x1="114.3" y1="42.1" x2="89.5" y2="42.1"/>
					<line class="st9" x1="114.3" y1="55.1" x2="89.5" y2="55.1"/>
					<line class="st9" x1="102.5" y1="68.1" x2="102.5" y2="29.2"/>
				</g>
			</g>
		</g>
		<g>
			<rect x="57.1" y="42.1" class="st6" width="26" height="26"/>
			<rect x="57.1" y="42.1" class="st7" width="26" height="26.1"/>
			<g>
				<defs>
					<rect id="SVGID_9_" x="58.5" y="30.5" width="24.6" height="36.3"/>
				</defs>
				<clipPath id="SVGID_10_">
					<use xlink:href="#SVGID_9_"  style="overflow:visible;"/>
				</clipPath>
				<g class="st13">
					<line class="st9" x1="81.9" y1="55.1" x2="57" y2="55.1"/>
					<line class="st9" x1="70.1" y1="68.1" x2="70.1" y2="43.4"/>
				</g>
			</g>
		</g>
		<g>
			<rect x="35.6" y="16.2" class="st6" width="13" height="51.9"/>
			<rect x="35.6" y="16.2" class="st7" width="12.9" height="51.9"/>
			<g>
				<defs>
					<rect id="SVGID_11_" x="36.9" y="17.5" width="10.3" height="49.2"/>
				</defs>
				<clipPath id="SVGID_12_">
					<use xlink:href="#SVGID_11_"  style="overflow:visible;"/>
				</clipPath>
				<g class="st14">
					<line class="st9" x1="47.3" y1="55.2" x2="35.7" y2="55.2"/>
					<line class="st9" x1="47.3" y1="42.1" x2="35.7" y2="42.1"/>
					<line class="st9" x1="47.3" y1="29.1" x2="35.7" y2="29.1"/>
				</g>
			</g>
		</g>
		<g>
			<rect x="16.1" y="29.1" class="st6" width="13" height="39"/>
			<rect x="16.1" y="29.1" class="st7" width="12.9" height="39"/>
			<g>
				<defs>
					<rect id="SVGID_13_" x="17.4" y="30.5" width="10.3" height="36.3"/>
				</defs>
				<clipPath id="SVGID_14_">
					<use xlink:href="#SVGID_13_"  style="overflow:visible;"/>
				</clipPath>
				<g class="st15">
					<line class="st9" x1="17.4" y1="42.2" x2="29" y2="42.2"/>
					<line class="st9" x1="17.4" y1="55.2" x2="29" y2="55.2"/>
				</g>
			</g>
		</g>
	</g>
	<g>
		<g>
			<line class="st16" x1="129.8" y1="79" x2="129.8" y2="100.5"/>
			<g>
				<path d="M129.8,106.5c-1.1-2.8-2.9-6.4-4.8-8.5l4.8,1.7l4.8-1.7C132.6,100.1,130.8,103.7,129.8,106.5z"/>
			</g>
		</g>
	</g>
</g>
</svg>
